<svg width="200" height="200" viewBox="0 0 200 200" fill="none" xmlns="http://www.w3.org/2000/svg">
<path d="M146.174 105.718C158.246 105.718 167.912 115.042 167.912 126.399C167.912 137.755 158.247 147.08 146.174 147.08C134.102 147.08 124.435 137.755 124.435 126.399C124.435 115.042 134.102 105.718 146.174 105.718Z" stroke="#E15F63" stroke-width="3"/>
<rect width="6.57766" height="34.6507" rx="3.28883" transform="matrix(0.897789 -0.440425 0.474106 0.880468 155 143.897)" fill="#E15F63"/>
<path d="M26.6599 26.5845H151.154" stroke="#E15F63" stroke-width="3" stroke-linecap="round"/>
<path d="M26.6599 123.23H114.635" stroke="#E15F63" stroke-width="3" stroke-linecap="round"/>
<path d="M26.6599 74.1152L151.154 74.1152" stroke="#E15F63" stroke-width="3" stroke-linecap="round"/>
<line x1="26.5" y1="170.845" x2="147.994" y2="170.845" stroke="#E15F63" stroke-width="3" stroke-linecap="round"/>
<path d="M26.6599 26.5845L26.6599 170.761" stroke="#E15F63" stroke-width="3" stroke-linecap="round"/>
<line x1="150.994" y1="26.5" x2="150.994" y2="97.9649" stroke="#E15F63" stroke-width="3" stroke-linecap="round"/>
<rect x="33.2996" y="32.9219" width="9.95949" height="36.4403" rx="1" fill="#E15F63"/>
<rect x="44.9189" y="40.8435" width="6.63966" height="28.5185" rx="1" fill="#E15F63"/>
<rect x="53.2185" y="39.2593" width="11.6194" height="30.1028" rx="1" fill="#E15F63"/>
<rect width="6.61637" height="30.2183" rx="1" transform="matrix(0.96321 -0.268749 0.292834 0.956163 66.4979 41.0374)" fill="#E15F63"/>
<rect width="9.95462" height="36.4598" rx="1" transform="matrix(0.994973 -0.100146 0.109813 0.993952 54.8784 83.0337)" fill="#E15F63"/>
<rect x="71.4777" y="89.9587" width="6.63966" height="28.5185" rx="1" fill="#E15F63"/>
<rect x="33.2996" y="89.9587" width="6.63966" height="28.5185" rx="1" fill="#E15F63"/>
<rect x="79.7772" y="88.3745" width="11.6194" height="30.1028" rx="1" fill="#E15F63"/>
<rect x="41.5991" y="88.3745" width="11.6194" height="30.1028" rx="1" fill="#E15F63"/>
<rect width="6.61637" height="30.2183" rx="1" transform="matrix(0.96321 -0.268749 0.292834 0.956163 94.7164 90.1526)" fill="#E15F63"/>
<path d="M45.8577 149.636V162H43.5999L38.221 154.218H38.1305V162H35.5165V149.636H37.8105L43.1472 157.412H43.2558V149.636H45.8577ZM52.1588 162.181C51.221 162.181 50.4101 161.982 49.7259 161.583C49.0457 161.181 48.5205 160.622 48.1503 159.905C47.78 159.185 47.5949 158.35 47.5949 157.4C47.5949 156.442 47.78 155.605 48.1503 154.888C48.5205 154.168 49.0457 153.609 49.7259 153.21C50.4101 152.808 51.221 152.607 52.1588 152.607C53.0965 152.607 53.9055 152.808 54.5856 153.21C55.2698 153.609 55.797 154.168 56.1673 154.888C56.5376 155.605 56.7227 156.442 56.7227 157.4C56.7227 158.35 56.5376 159.185 56.1673 159.905C55.797 160.622 55.2698 161.181 54.5856 161.583C53.9055 161.982 53.0965 162.181 52.1588 162.181ZM52.1709 160.189C52.5975 160.189 52.9536 160.068 53.2394 159.827C53.5251 159.581 53.7405 159.247 53.8853 158.825C54.0343 158.402 54.1087 157.921 54.1087 157.382C54.1087 156.842 54.0343 156.362 53.8853 155.939C53.7405 155.516 53.5251 155.182 53.2394 154.937C52.9536 154.691 52.5975 154.569 52.1709 154.569C51.7402 154.569 51.378 154.691 51.0842 154.937C50.7944 155.182 50.5751 155.516 50.4262 155.939C50.2813 156.362 50.2089 156.842 50.2089 157.382C50.2089 157.921 50.2813 158.402 50.4262 158.825C50.5751 159.247 50.7944 159.581 51.0842 159.827C51.378 160.068 51.7402 160.189 52.1709 160.189ZM63.3271 152.727V154.659H57.7429V152.727H63.3271ZM59.0107 150.506H61.5824V159.151C61.5824 159.388 61.6187 159.573 61.6911 159.706C61.7635 159.835 61.8642 159.925 61.9929 159.978C62.1258 160.03 62.2787 160.056 62.4517 160.056C62.5725 160.056 62.6932 160.046 62.814 160.026C62.9347 160.002 63.0273 159.984 63.0917 159.972L63.4961 161.885C63.3674 161.926 63.1862 161.972 62.9528 162.024C62.7194 162.08 62.4357 162.115 62.1016 162.127C61.4818 162.151 60.9385 162.068 60.4716 161.879C60.0088 161.69 59.6486 161.396 59.391 160.998C59.1334 160.599 59.0067 160.096 59.0107 159.489V150.506ZM68.9852 162V149.636H77.1713V151.792H71.5992V154.738H76.628V156.893H71.5992V162H68.9852ZM82.3902 162.181C81.4525 162.181 80.6415 161.982 79.9573 161.583C79.2772 161.181 78.752 160.622 78.3817 159.905C78.0114 159.185 77.8263 158.35 77.8263 157.4C77.8263 156.442 78.0114 155.605 78.3817 154.888C78.752 154.168 79.2772 153.609 79.9573 153.21C80.6415 152.808 81.4525 152.607 82.3902 152.607C83.328 152.607 84.1369 152.808 84.8171 153.21C85.5013 153.609 86.0285 154.168 86.3987 154.888C86.769 155.605 86.9541 156.442 86.9541 157.4C86.9541 158.35 86.769 159.185 86.3987 159.905C86.0285 160.622 85.5013 161.181 84.8171 161.583C84.1369 161.982 83.328 162.181 82.3902 162.181ZM82.4023 160.189C82.8289 160.189 83.1851 160.068 83.4708 159.827C83.7566 159.581 83.9719 159.247 84.1168 158.825C84.2657 158.402 84.3402 157.921 84.3402 157.382C84.3402 156.842 84.2657 156.362 84.1168 155.939C83.9719 155.516 83.7566 155.182 83.4708 154.937C83.1851 154.691 82.8289 154.569 82.4023 154.569C81.9717 154.569 81.6094 154.691 81.3157 154.937C81.0259 155.182 80.8065 155.516 80.6576 155.939C80.5127 156.362 80.4403 156.842 80.4403 157.382C80.4403 157.921 80.5127 158.402 80.6576 158.825C80.8065 159.247 81.0259 159.581 81.3157 159.827C81.6094 160.068 81.9717 160.189 82.4023 160.189ZM94.5728 158.052V152.727H97.1445V162H94.6754V160.316H94.5788C94.3695 160.859 94.0214 161.296 93.5344 161.626C93.0514 161.956 92.4618 162.121 91.7656 162.121C91.1458 162.121 90.6005 161.98 90.1296 161.698C89.6587 161.416 89.2904 161.016 89.0248 160.497C88.7632 159.978 88.6304 159.356 88.6264 158.631V152.727H91.1981V158.173C91.2021 158.72 91.349 159.153 91.6388 159.471C91.9286 159.788 92.317 159.947 92.8039 159.947C93.1138 159.947 93.4036 159.877 93.6733 159.736C93.9429 159.591 94.1602 159.378 94.3252 159.096C94.4943 158.815 94.5768 158.466 94.5728 158.052ZM101.773 156.639V162H99.2016V152.727H101.653V154.363H101.761C101.966 153.824 102.311 153.397 102.794 153.083C103.277 152.766 103.862 152.607 104.55 152.607C105.194 152.607 105.756 152.747 106.235 153.029C106.714 153.311 107.086 153.713 107.351 154.237C107.617 154.756 107.75 155.375 107.75 156.096V162H105.178V156.555C105.182 155.987 105.037 155.545 104.743 155.227C104.45 154.905 104.045 154.744 103.53 154.744C103.184 154.744 102.878 154.818 102.612 154.967C102.351 155.116 102.146 155.333 101.997 155.619C101.852 155.901 101.777 156.241 101.773 156.639ZM113.194 162.151C112.489 162.151 111.851 161.97 111.28 161.608C110.712 161.241 110.262 160.704 109.928 159.996C109.598 159.283 109.433 158.41 109.433 157.376C109.433 156.313 109.604 155.43 109.946 154.725C110.288 154.017 110.743 153.488 111.31 153.138C111.882 152.784 112.507 152.607 113.188 152.607C113.707 152.607 114.139 152.695 114.486 152.872C114.836 153.045 115.117 153.263 115.331 153.524C115.548 153.782 115.713 154.035 115.826 154.285H115.904V149.636H118.47V162H115.934V160.515H115.826C115.705 160.772 115.534 161.028 115.313 161.282C115.095 161.531 114.812 161.738 114.461 161.903C114.115 162.068 113.693 162.151 113.194 162.151ZM114.009 160.104C114.423 160.104 114.773 159.992 115.059 159.766C115.349 159.537 115.57 159.217 115.723 158.806C115.88 158.396 115.959 157.915 115.959 157.364C115.959 156.812 115.882 156.333 115.729 155.927C115.576 155.52 115.355 155.206 115.065 154.985C114.775 154.764 114.423 154.653 114.009 154.653C113.586 154.653 113.23 154.768 112.94 154.997C112.65 155.227 112.431 155.545 112.282 155.951C112.133 156.357 112.059 156.828 112.059 157.364C112.059 157.903 112.133 158.38 112.282 158.794C112.435 159.205 112.654 159.527 112.94 159.76C113.23 159.99 113.586 160.104 114.009 160.104Z" fill="#E15F63"/>
<path d="M35.4415 142.827V140.768L40.603 132.636H42.3779V135.486H41.3275L38.0736 140.635V140.732H45.4084V142.827H35.4415ZM41.3758 145V142.199L41.4241 141.287V132.636H43.875V145H41.3758ZM51.9977 145.272C50.9594 145.268 50.0659 145.012 49.3173 144.505C48.5728 143.998 47.9993 143.263 47.5968 142.301C47.1984 141.34 47.0012 140.183 47.0052 138.83C47.0052 137.482 47.2044 136.333 47.6028 135.383C48.0053 134.433 48.5788 133.711 49.3234 133.216C50.072 132.717 50.9634 132.467 51.9977 132.467C53.0321 132.467 53.9215 132.717 54.6661 133.216C55.4146 133.715 55.9902 134.439 56.3926 135.389C56.7951 136.335 56.9943 137.482 56.9903 138.83C56.9903 140.187 56.789 141.346 56.3866 142.308C55.9881 143.269 55.4167 144.004 54.6721 144.511C53.9275 145.018 53.0361 145.272 51.9977 145.272ZM51.9977 143.104C52.7061 143.104 53.2715 142.748 53.6941 142.036C54.1167 141.324 54.326 140.255 54.322 138.83C54.322 137.893 54.2254 137.112 54.0322 136.488C53.843 135.864 53.5734 135.395 53.2232 135.081C52.8771 134.767 52.4686 134.61 51.9977 134.61C51.2934 134.61 50.73 134.963 50.3074 135.667C49.8848 136.371 49.6715 137.426 49.6675 138.83C49.6675 139.78 49.7621 140.573 49.9512 141.209C50.1444 141.841 50.4161 142.316 50.7662 142.634C51.1163 142.947 51.5269 143.104 51.9977 143.104ZM58.667 142.827V140.768L63.8286 132.636H65.6035V135.486H64.553L61.2991 140.635V140.732H68.634V142.827H58.667ZM64.6013 145V142.199L64.6496 141.287V132.636H67.1006V145H64.6013Z" fill="#E15F63"/>
</svg>
