<svg width="200" height="200" viewBox="0 0 200 200" fill="none" xmlns="http://www.w3.org/2000/svg">
<path d="M41.1558 26.6121H156.975" stroke="#5E4B39" stroke-width="3" stroke-linecap="round"/>
<path d="M58.1426 42.7412H139.988" stroke="#5E4B39" stroke-width="3" stroke-linecap="round"/>
<path d="M58.1426 84.6768H139.988" stroke="#5E4B39" stroke-width="3" stroke-linecap="round"/>
<line x1="42.5455" y1="173.499" x2="157.412" y2="173.499" stroke="#5E4B39" stroke-width="3" stroke-linecap="round"/>
<path d="M41.0455 114.999L41.8019 173.677" stroke="#5E4B39" stroke-width="3" stroke-linecap="round"/>
<path d="M41.1558 26.6121L41.1558 104.031" stroke="#5E4B39" stroke-width="3" stroke-linecap="round"/>
<line x1="158.081" y1="26.509" x2="157.476" y2="127.508" stroke="#5E4B39" stroke-width="3" stroke-linecap="round"/>
<line x1="157.5" y1="137.5" x2="157.5" y2="173.5" stroke="#5E4B39" stroke-width="3" stroke-linecap="round"/>
<path d="M63.8228 69.9993V54.7265H67.0519V67.337H73.5994V69.9993H63.8228ZM80.8536 70.223C79.6952 70.223 78.6935 69.9769 77.8483 69.4847C77.0081 68.9875 76.3593 68.2965 75.9019 67.4116C75.4445 66.5216 75.2158 65.49 75.2158 64.3167C75.2158 63.1335 75.4445 62.0994 75.9019 61.2145C76.3593 60.3246 77.0081 59.6335 77.8483 59.1413C78.6935 58.6442 79.6952 58.3956 80.8536 58.3956C82.012 58.3956 83.0113 58.6442 83.8515 59.1413C84.6966 59.6335 85.3479 60.3246 85.8053 61.2145C86.2627 62.0994 86.4914 63.1335 86.4914 64.3167C86.4914 65.49 86.2627 66.5216 85.8053 67.4116C85.3479 68.2965 84.6966 68.9875 83.8515 69.4847C83.0113 69.9769 82.012 70.223 80.8536 70.223ZM80.8685 67.7621C81.3955 67.7621 81.8355 67.6129 82.1885 67.3146C82.5415 67.0113 82.8074 66.5987 82.9864 66.0767C83.1704 65.5547 83.2623 64.9606 83.2623 64.2944C83.2623 63.6282 83.1704 63.0341 82.9864 62.5121C82.8074 61.99 82.5415 61.5774 82.1885 61.2741C81.8355 60.9709 81.3955 60.8192 80.8685 60.8192C80.3366 60.8192 79.8891 60.9709 79.5262 61.2741C79.1682 61.5774 78.8973 61.99 78.7133 62.5121C78.5344 63.0341 78.4449 63.6282 78.4449 64.2944C78.4449 64.9606 78.5344 65.5547 78.7133 66.0767C78.8973 66.5987 79.1682 67.0113 79.5262 67.3146C79.8891 67.6129 80.3366 67.7621 80.8685 67.7621ZM93.7325 70.223C92.5592 70.223 91.55 69.9744 90.7048 69.4773C89.8646 68.9751 89.2183 68.2791 88.7659 67.3892C88.3185 66.4993 88.0947 65.4751 88.0947 64.3167C88.0947 63.1434 88.3209 62.1143 88.7734 61.2294C89.2307 60.3395 89.8795 59.6459 90.7197 59.1488C91.5599 58.6466 92.5592 58.3956 93.7176 58.3956C94.7169 58.3956 95.5919 58.577 96.3426 58.94C97.0933 59.3029 97.6874 59.8125 98.1249 60.4687C98.5624 61.125 98.8035 61.8956 98.8483 62.7805H95.8504C95.7659 62.2088 95.5422 61.7489 95.1792 61.4009C94.8213 61.0479 94.3515 60.8714 93.7698 60.8714C93.2776 60.8714 92.8476 61.0057 92.4797 61.2741C92.1167 61.5376 91.8334 61.9229 91.6295 62.43C91.4257 62.9371 91.3238 63.5511 91.3238 64.272C91.3238 65.0028 91.4232 65.6243 91.6221 66.1363C91.8259 66.6484 92.1118 67.0387 92.4797 67.3072C92.8476 67.5756 93.2776 67.7098 93.7698 67.7098C94.1327 67.7098 94.4584 67.6353 94.7467 67.4861C95.04 67.337 95.2812 67.1207 95.4701 66.8373C95.664 66.549 95.7908 66.2035 95.8504 65.8008H98.8483C98.7986 66.6758 98.5599 67.4464 98.1324 68.1125C97.7098 68.7738 97.1256 69.2908 96.3799 69.6637C95.6341 70.0366 94.7517 70.223 93.7325 70.223ZM103.761 66.7031L103.768 62.8924H104.231L107.9 58.5447H111.546L106.617 64.3018H105.864L103.761 66.7031ZM100.882 69.9993V54.7265H104.059V69.9993H100.882ZM108.041 69.9993L104.671 65.0103L106.789 62.7656L111.763 69.9993H108.041ZM117.853 70.223C116.675 70.223 115.661 69.9844 114.811 69.5071C113.966 69.0248 113.314 68.3437 112.857 67.4638C112.4 66.5788 112.171 65.5323 112.171 64.3242C112.171 63.1459 112.4 62.1118 112.857 61.2219C113.314 60.332 113.958 59.6385 114.788 59.1413C115.624 58.6442 116.603 58.3956 117.727 58.3956C118.482 58.3956 119.186 58.5174 119.837 58.761C120.493 58.9996 121.065 59.3601 121.552 59.8423C122.044 60.3246 122.427 60.9311 122.701 61.6619C122.974 62.3878 123.111 63.2379 123.111 64.2123V65.0848H113.439V63.1161H120.12C120.12 62.6587 120.021 62.2535 119.822 61.9005C119.623 61.5476 119.347 61.2716 118.994 61.0728C118.646 60.8689 118.241 60.767 117.779 60.767C117.297 60.767 116.869 60.8789 116.496 61.1026C116.128 61.3214 115.84 61.6172 115.631 61.99C115.422 62.3579 115.315 62.7681 115.31 63.2205V65.0923C115.31 65.6591 115.415 66.1488 115.624 66.5614C115.837 66.9741 116.138 67.2922 116.526 67.516C116.914 67.7397 117.374 67.8515 117.906 67.8515C118.259 67.8515 118.582 67.8018 118.875 67.7024C119.168 67.603 119.419 67.4538 119.628 67.2549C119.837 67.0561 119.996 66.8125 120.106 66.5241L123.044 66.718C122.895 67.424 122.589 68.0405 122.127 68.5674C121.669 69.0895 121.078 69.4971 120.352 69.7905C119.631 70.0788 118.798 70.223 117.853 70.223ZM129.405 70.1857C128.535 70.1857 127.747 69.962 127.041 69.5145C126.34 69.0621 125.783 68.3984 125.37 67.5234C124.963 66.6434 124.759 65.5646 124.759 64.2869C124.759 62.9744 124.97 61.8831 125.393 61.0131C125.815 60.1381 126.377 59.4844 127.078 59.0518C127.784 58.6143 128.557 58.3956 129.397 58.3956C130.039 58.3956 130.573 58.5049 131.001 58.7237C131.433 58.9375 131.781 59.2059 132.045 59.5291C132.313 59.8473 132.517 60.1605 132.656 60.4687H132.753V54.7265H135.923V69.9993H132.791V68.1648H132.656C132.507 68.4829 132.296 68.7986 132.022 69.1118C131.754 69.4201 131.404 69.6761 130.971 69.8799C130.543 70.0838 130.021 70.1857 129.405 70.1857ZM130.412 67.6576C130.924 67.6576 131.356 67.5184 131.709 67.24C132.067 66.9567 132.341 66.5614 132.53 66.0543C132.723 65.5472 132.82 64.9531 132.82 64.272C132.82 63.5909 132.726 62.9993 132.537 62.4971C132.348 61.995 132.075 61.6072 131.717 61.3338C131.359 61.0603 130.924 60.9236 130.412 60.9236C129.89 60.9236 129.45 61.0653 129.092 61.3487C128.734 61.6321 128.463 62.0248 128.279 62.527C128.095 63.0291 128.003 63.6108 128.003 64.272C128.003 64.9382 128.095 65.5273 128.279 66.0394C128.468 66.5465 128.739 66.9442 129.092 67.2326C129.45 67.516 129.89 67.6576 130.412 67.6576Z" fill="#5E4B39"/>
<path d="M76.6737 121.859V157.343" stroke="#5E4B39" stroke-width="3" stroke-linecap="round"/>
<path d="M123.001 121.859V157.343" stroke="#5E4B39" stroke-width="3" stroke-linecap="round"/>
<path d="M76.6737 121.859L123.001 121.859" stroke="#5E4B39" stroke-width="3" stroke-linecap="round"/>
<path d="M76.6737 157.343L123.001 157.343" stroke="#5E4B39" stroke-width="3" stroke-linecap="round"/>
<ellipse cx="99.8375" cy="134.763" rx="4.63276" ry="4.83871" fill="#5E4B39"/>
<rect x="96.749" y="136.375" width="6.17702" height="14.5161" rx="3.08851" fill="#5E4B39"/>
<path d="M38.4771 109.736L41.4049 110.387L41.0504 112.126L53.318 114.856L53.6812 113.072L56.61 113.724L56.0465 116.486L55.9967 116.684C55.7154 117.585 54.8349 118.156 53.8971 118.046L53.6949 118.012L39.4752 114.849L39.2779 114.794C38.3781 114.496 37.7974 113.6 37.8922 112.657L37.9225 112.455L38.4771 109.736ZM41.8053 102.399L42.0064 102.434L56.2262 105.596L56.4244 105.651C57.388 105.971 57.9856 106.976 57.7789 107.99L57.4342 109.678L54.5055 109.027L54.651 108.318L42.3834 105.59L42.2398 106.29L39.3121 105.64L39.6549 103.959C39.8619 102.944 40.8003 102.281 41.8053 102.399Z" fill="#5E4B39"/>
<path d="M63.4245 107.239L63.6256 107.272L77.8463 110.435L78.0436 110.491C79.0073 110.81 79.6059 111.815 79.3991 112.83L79.0504 114.539L76.1207 113.887L76.2702 113.158L64.0026 110.429L63.8463 111.193L60.9186 110.543L60.0622 114.744L62.9899 115.395L62.6706 116.965L74.9381 119.694L75.235 118.235L78.1637 118.886L77.6666 121.326L77.6159 121.523C77.3345 122.424 76.4548 122.995 75.5172 122.884L75.3141 122.851L61.0944 119.688L60.8971 119.633C59.9976 119.335 59.417 118.439 59.5114 117.497L59.5416 117.294L61.2741 108.798C61.481 107.784 62.4195 107.12 63.4245 107.239Z" fill="#5E4B39"/>
<path d="M125.147 118.74L137.415 121.469L137.786 119.647L140.352 122.072L140.143 123.1L140.093 123.298C139.812 124.199 138.931 124.77 137.994 124.66L137.792 124.626L123.572 121.463L123.375 121.408C122.475 121.11 121.894 120.214 121.989 119.271L122.019 119.069L122.445 116.977L125.603 116.503L125.147 118.74ZM125.902 109.013L126.103 109.048L140.323 112.21L140.521 112.265C141.485 112.585 142.082 113.59 141.876 114.604L141.303 117.406L138.757 115L138.727 115.03L138.748 114.932L126.48 112.204L126.464 112.281L123.305 112.757L123.752 110.573C123.959 109.558 124.897 108.895 125.902 109.013Z" fill="#5E4B39"/>
<rect width="3.21449" height="11.5116" rx="1.60724" transform="matrix(0.646576 -0.76285 0.747017 0.664805 154.979 132.451)" fill="#5E4B39"/>
<rect width="3.21449" height="15.3811" rx="1.60724" transform="matrix(0.218459 -0.975846 0.970288 0.241955 51.4021 111.973)" fill="#5E4B39"/>
<rect width="3.21449" height="9.07548" rx="1.60724" transform="matrix(0.216122 -0.976366 0.970864 0.23963 36 108.62)" fill="#5E4B39"/>
<rect width="3.22565" height="15.8072" rx="1.61283" transform="matrix(0.184347 -0.982861 0.982312 0.187253 72.9788 117.17)" fill="#5E4B39"/>
<rect width="3.16471" height="13.9573" rx="1.58235" transform="matrix(0.654954 -0.755669 0.726633 0.687026 135.979 117.391)" fill="#5E4B39"/>
<rect width="3.2032" height="15.5808" rx="1.6016" transform="matrix(-0.171064 -0.98526 0.990297 -0.138966 113.081 117.787)" fill="#5E4B39"/>
<path d="M85.8711 120.156C85.8823 120.421 85.8961 120.689 85.9131 120.96L84.416 121.053L82.9189 121.148C82.8856 120.619 82.8624 120.097 82.8496 119.584L85.8711 120.156ZM118.315 117.603C118.375 118.729 118.387 119.897 118.345 121.106L116.846 121.053L115.347 121.002C115.382 119.98 115.377 118.997 115.337 118.05L118.315 117.603ZM100.301 96.0808C108.231 96.0407 115.762 102.02 117.819 113.296L114.863 113.74C113.01 103.651 106.394 99.0502 100.316 99.0808C96.5485 99.0998 92.7587 100.851 89.9971 104.416C87.9177 107.1 86.3881 110.863 85.959 115.756L83 115.196C83.5076 109.955 85.1855 105.728 87.625 102.579C90.932 98.3094 95.5791 96.1047 100.301 96.0808Z" fill="#5E4B39"/>
<path d="M144.254 125.969L143.086 127.829L155.52 135.954L156.438 134.492L158.79 136.386L157.499 138.442L157.381 138.608C156.801 139.353 155.776 139.577 154.937 139.143L154.76 139.041L140.653 129.822L140.488 129.701C139.751 129.105 139.523 128.062 139.944 127.212L140.044 127.035L141.935 124.024L144.254 125.969ZM144.657 119.693C145.208 118.816 146.321 118.526 147.219 118.991L147.396 119.093L161.502 128.313L161.669 128.433C162.458 129.072 162.664 130.223 162.113 131.1L161.059 132.776L158.708 130.88L159.07 130.305L146.636 122.18L146.631 122.187L144.312 120.241L144.657 119.693Z" fill="#5E4B39"/>
</svg>
