<svg width="200" height="200" viewBox="0 0 200 200" fill="none" xmlns="http://www.w3.org/2000/svg">
<circle cx="141" cy="131" r="20" stroke="#5E4B39" stroke-width="4"/>
<rect width="6.57766" height="27.1961" rx="3.28883" transform="matrix(0.804441 -0.594032 0.624068 0.78137 150.268 148.75)" fill="#5E4B39"/>
<path d="M28 32.5845L140.339 32" stroke="#5E4B39" stroke-width="4" stroke-linecap="round"/>
<path d="M29 129L115.975 129.23" stroke="#5E4B39" stroke-width="4" stroke-linecap="round"/>
<path d="M29 80L139 79" stroke="#5E4B39" stroke-width="4" stroke-linecap="round"/>
<line x1="29" y1="166" x2="132" y2="166" stroke="#5E4B39" stroke-width="4" stroke-linecap="round"/>
<path d="M28 32.5845L28.3142 166" stroke="#5E4B39" stroke-width="4" stroke-linecap="round"/>
<line x1="140.34" y1="33" x2="140.34" y2="103.465" stroke="#5E4B39" stroke-width="4" stroke-linecap="round"/>
<rect x="34.6396" y="38.9219" width="9.95949" height="36.4403" rx="1" fill="#D57377"/>
<rect x="46.259" y="46.8435" width="6.63966" height="28.5185" rx="1" fill="#5E4B39"/>
<rect x="54.5586" y="45.2593" width="11.6194" height="30.1028" rx="1" fill="#D57377"/>
<rect width="6.61637" height="30.2183" rx="1" transform="matrix(0.96321 -0.268749 0.292834 0.956163 67.838 47.0374)" fill="#5E4B39"/>
<rect width="9.95462" height="36.4598" rx="1" transform="matrix(0.994973 -0.100146 0.109813 0.993952 56.2185 89.0337)" fill="#D57377"/>
<rect x="72.8177" y="95.9587" width="6.63966" height="28.5185" rx="1" fill="#5E4B39"/>
<rect x="34.6396" y="95.9587" width="6.63966" height="28.5185" rx="1" fill="#5E4B39"/>
<rect x="81.1173" y="94.3745" width="11.6194" height="30.1028" rx="1" fill="#5E4B39"/>
<rect x="42.9392" y="94.3745" width="11.6194" height="30.1028" rx="1" fill="#5E4B39"/>
<rect width="6.61637" height="30.2183" rx="1" transform="matrix(0.96321 -0.268749 0.292834 0.956163 96.0565 96.1526)" fill="#D57377"/>
<path d="M44.8577 148.636V161H42.5999L37.221 153.218H37.1305V161H34.5165V148.636H36.8105L42.1472 156.412H42.2558V148.636H44.8577ZM51.1588 161.181C50.221 161.181 49.4101 160.982 48.7259 160.583C48.0457 160.181 47.5205 159.622 47.1503 158.905C46.78 158.185 46.5949 157.35 46.5949 156.4C46.5949 155.442 46.78 154.605 47.1503 153.888C47.5205 153.168 48.0457 152.609 48.7259 152.21C49.4101 151.808 50.221 151.607 51.1588 151.607C52.0965 151.607 52.9055 151.808 53.5856 152.21C54.2698 152.609 54.797 153.168 55.1673 153.888C55.5376 154.605 55.7227 155.442 55.7227 156.4C55.7227 157.35 55.5376 158.185 55.1673 158.905C54.797 159.622 54.2698 160.181 53.5856 160.583C52.9055 160.982 52.0965 161.181 51.1588 161.181ZM51.1709 159.189C51.5975 159.189 51.9536 159.068 52.2394 158.827C52.5251 158.581 52.7405 158.247 52.8853 157.825C53.0343 157.402 53.1087 156.921 53.1087 156.382C53.1087 155.842 53.0343 155.362 52.8853 154.939C52.7405 154.516 52.5251 154.182 52.2394 153.937C51.9536 153.691 51.5975 153.569 51.1709 153.569C50.7402 153.569 50.378 153.691 50.0842 153.937C49.7944 154.182 49.5751 154.516 49.4262 154.939C49.2813 155.362 49.2089 155.842 49.2089 156.382C49.2089 156.921 49.2813 157.402 49.4262 157.825C49.5751 158.247 49.7944 158.581 50.0842 158.827C50.378 159.068 50.7402 159.189 51.1709 159.189ZM62.3271 151.727V153.659H56.7429V151.727H62.3271ZM58.0107 149.506H60.5824V158.151C60.5824 158.388 60.6187 158.573 60.6911 158.706C60.7635 158.835 60.8642 158.925 60.9929 158.978C61.1258 159.03 61.2787 159.056 61.4517 159.056C61.5725 159.056 61.6932 159.046 61.814 159.026C61.9347 159.002 62.0273 158.984 62.0917 158.972L62.4961 160.885C62.3674 160.926 62.1862 160.972 61.9528 161.024C61.7194 161.08 61.4357 161.115 61.1016 161.127C60.4818 161.151 59.9385 161.068 59.4716 160.879C59.0088 160.69 58.6486 160.396 58.391 159.998C58.1334 159.599 58.0067 159.096 58.0107 158.489V149.506ZM67.9852 161V148.636H76.1713V150.792H70.5992V153.738H75.628V155.893H70.5992V161H67.9852ZM81.3902 161.181C80.4525 161.181 79.6415 160.982 78.9573 160.583C78.2772 160.181 77.752 159.622 77.3817 158.905C77.0114 158.185 76.8263 157.35 76.8263 156.4C76.8263 155.442 77.0114 154.605 77.3817 153.888C77.752 153.168 78.2772 152.609 78.9573 152.21C79.6415 151.808 80.4525 151.607 81.3902 151.607C82.328 151.607 83.1369 151.808 83.8171 152.21C84.5013 152.609 85.0285 153.168 85.3987 153.888C85.769 154.605 85.9541 155.442 85.9541 156.4C85.9541 157.35 85.769 158.185 85.3987 158.905C85.0285 159.622 84.5013 160.181 83.8171 160.583C83.1369 160.982 82.328 161.181 81.3902 161.181ZM81.4023 159.189C81.8289 159.189 82.1851 159.068 82.4708 158.827C82.7566 158.581 82.9719 158.247 83.1168 157.825C83.2657 157.402 83.3402 156.921 83.3402 156.382C83.3402 155.842 83.2657 155.362 83.1168 154.939C82.9719 154.516 82.7566 154.182 82.4708 153.937C82.1851 153.691 81.8289 153.569 81.4023 153.569C80.9717 153.569 80.6094 153.691 80.3157 153.937C80.0259 154.182 79.8065 154.516 79.6576 154.939C79.5127 155.362 79.4403 155.842 79.4403 156.382C79.4403 156.921 79.5127 157.402 79.6576 157.825C79.8065 158.247 80.0259 158.581 80.3157 158.827C80.6094 159.068 80.9717 159.189 81.4023 159.189ZM93.5728 157.052V151.727H96.1445V161H93.6754V159.316H93.5788C93.3695 159.859 93.0214 160.296 92.5344 160.626C92.0514 160.956 91.4618 161.121 90.7656 161.121C90.1458 161.121 89.6005 160.98 89.1296 160.698C88.6587 160.416 88.2904 160.016 88.0248 159.497C87.7632 158.978 87.6304 158.356 87.6264 157.631V151.727H90.1981V157.173C90.2021 157.72 90.349 158.153 90.6388 158.471C90.9286 158.788 91.317 158.947 91.8039 158.947C92.1138 158.947 92.4036 158.877 92.6733 158.736C92.9429 158.591 93.1602 158.378 93.3252 158.096C93.4943 157.815 93.5768 157.466 93.5728 157.052ZM100.773 155.639V161H98.2016V151.727H100.653V153.363H100.761C100.966 152.824 101.311 152.397 101.794 152.083C102.277 151.766 102.862 151.607 103.55 151.607C104.194 151.607 104.756 151.747 105.235 152.029C105.714 152.311 106.086 152.713 106.351 153.237C106.617 153.756 106.75 154.375 106.75 155.096V161H104.178V155.555C104.182 154.987 104.037 154.545 103.743 154.227C103.45 153.905 103.045 153.744 102.53 153.744C102.184 153.744 101.878 153.818 101.612 153.967C101.351 154.116 101.146 154.333 100.997 154.619C100.852 154.901 100.777 155.241 100.773 155.639ZM112.194 161.151C111.489 161.151 110.851 160.97 110.28 160.608C109.712 160.241 109.262 159.704 108.928 158.996C108.598 158.283 108.433 157.41 108.433 156.376C108.433 155.313 108.604 154.43 108.946 153.725C109.288 153.017 109.743 152.488 110.31 152.138C110.882 151.784 111.507 151.607 112.188 151.607C112.707 151.607 113.139 151.695 113.486 151.872C113.836 152.045 114.117 152.263 114.331 152.524C114.548 152.782 114.713 153.035 114.826 153.285H114.904V148.636H117.47V161H114.934V159.515H114.826C114.705 159.772 114.534 160.028 114.313 160.282C114.095 160.531 113.812 160.738 113.461 160.903C113.115 161.068 112.693 161.151 112.194 161.151ZM113.009 159.104C113.423 159.104 113.773 158.992 114.059 158.766C114.349 158.537 114.57 158.217 114.723 157.806C114.88 157.396 114.959 156.915 114.959 156.364C114.959 155.812 114.882 155.333 114.729 154.927C114.576 154.52 114.355 154.206 114.065 153.985C113.775 153.764 113.423 153.653 113.009 153.653C112.586 153.653 112.23 153.768 111.94 153.997C111.65 154.227 111.431 154.545 111.282 154.951C111.133 155.357 111.059 155.828 111.059 156.364C111.059 156.903 111.133 157.38 111.282 157.794C111.435 158.205 111.654 158.527 111.94 158.76C112.23 158.99 112.586 159.104 113.009 159.104Z" fill="#5E4B39"/>
<path d="M33.4415 143.827V141.768L38.603 133.636H40.3779V136.486H39.3275L36.0736 141.635V141.732H43.4084V143.827H33.4415ZM39.3758 146V143.199L39.4241 142.287V133.636H41.875V146H39.3758ZM49.9977 146.272C48.9594 146.268 48.0659 146.012 47.3173 145.505C46.5728 144.998 45.9993 144.263 45.5968 143.301C45.1984 142.34 45.0012 141.183 45.0052 139.83C45.0052 138.482 45.2044 137.333 45.6028 136.383C46.0053 135.433 46.5788 134.711 47.3234 134.216C48.072 133.717 48.9634 133.467 49.9977 133.467C51.0321 133.467 51.9215 133.717 52.6661 134.216C53.4146 134.715 53.9902 135.439 54.3926 136.389C54.7951 137.335 54.9943 138.482 54.9903 139.83C54.9903 141.187 54.789 142.346 54.3866 143.308C53.9881 144.269 53.4167 145.004 52.6721 145.511C51.9275 146.018 51.0361 146.272 49.9977 146.272ZM49.9977 144.104C50.7061 144.104 51.2715 143.748 51.6941 143.036C52.1167 142.324 52.326 141.255 52.322 139.83C52.322 138.893 52.2254 138.112 52.0322 137.488C51.843 136.864 51.5734 136.395 51.2232 136.081C50.8771 135.767 50.4686 135.61 49.9977 135.61C49.2934 135.61 48.73 135.963 48.3074 136.667C47.8848 137.371 47.6715 138.426 47.6675 139.83C47.6675 140.78 47.7621 141.573 47.9512 142.209C48.1444 142.841 48.4161 143.316 48.7662 143.634C49.1163 143.947 49.5269 144.104 49.9977 144.104ZM56.667 143.827V141.768L61.8286 133.636H63.6035V136.486H62.553L59.2991 141.635V141.732H66.634V143.827H56.667ZM62.6013 146V143.199L62.6496 142.287V133.636H65.1006V146H62.6013Z" fill="#D57377"/>
</svg>
