<svg width="200" height="200" viewBox="0 0 200 200" fill="none" xmlns="http://www.w3.org/2000/svg">
<path d="M26.4563 26.4851H135.68" stroke="#5E4B39" stroke-width="3" stroke-linecap="round"/>
<path d="M26.4563 117.079H103.641" stroke="#5E4B39" stroke-width="3" stroke-linecap="round"/>
<path d="M26.4563 71.0396L134.223 84.4059" stroke="#5E4B39" stroke-width="3" stroke-linecap="round"/>
<line x1="26.5" y1="161.619" x2="132.723" y2="161.619" stroke="#5E4B39" stroke-width="3" stroke-linecap="round"/>
<path d="M26.4563 26.4851L26.4563 161.634" stroke="#5E4B39" stroke-width="3" stroke-linecap="round"/>
<line x1="135.723" y1="26.5" x2="135.723" y2="93.302" stroke="#5E4B39" stroke-width="3" stroke-linecap="round"/>
<rect width="8.90792" height="33.5067" rx="1" transform="matrix(0.129052 -0.991638 0.990965 0.134122 48.301 69.4768)" fill="#5E4B39"/>
<rect width="5.85281" height="26.6105" rx="1" transform="matrix(0.869262 -0.494352 0.479783 0.877387 77.4272 53.1409)" fill="#5E4B39"/>
<rect width="10.2473" height="28.0757" rx="1" transform="matrix(0.855092 -0.518476 0.50367 0.863896 86.165 52.5901)" fill="#5E4B39"/>
<rect width="5.90998" height="27.8174" rx="1" transform="matrix(0.509591 -0.860417 0.851444 0.524446 106.553 65.7285)" fill="#5E4B39"/>
<rect width="8.77345" height="34.0241" rx="1" transform="matrix(0.88854 0.458799 -0.444699 0.89568 67.8004 78.4653)" fill="#5E4B39"/>
<rect width="5.84914" height="26.6268" rx="1" transform="matrix(0.88765 0.460519 -0.446394 0.894837 76.2064 85.8911)" fill="#5E4B39"/>
<rect width="5.82996" height="26.7118" rx="1" transform="matrix(0.978723 0.205185 -0.197609 0.980281 36.1036 85.8911)" fill="#5E4B39"/>
<rect width="10.3345" height="27.8393" rx="1" transform="matrix(0.546608 0.837388 -0.827364 0.561666 96.0916 90.3464)" fill="#5E4B39"/>
<rect width="10.2365" height="28.1046" rx="1" transform="matrix(0.886115 0.463465 -0.449296 0.893383 50.9943 84.5151)" fill="#5E4B39"/>
<rect width="5.83441" height="28.1751" rx="1" transform="matrix(0.958324 -0.285684 0.275547 0.961288 100.728 92.0134)" fill="#5E4B39"/>
<path d="M34.565 154.871V142.508H42.896V144.663H37.179V147.609H42.4673V149.764H37.179V152.716H42.9201V154.871H34.565ZM44.9259 154.871V145.599H47.4191V147.217H47.5157C47.6848 146.641 47.9685 146.206 48.3669 145.913C48.7654 145.615 49.2242 145.466 49.7434 145.466C49.8721 145.466 50.011 145.474 50.1599 145.49C50.3088 145.506 50.4396 145.528 50.5523 145.556V147.838C50.4316 147.802 50.2645 147.77 50.0512 147.742C49.8379 147.714 49.6427 147.699 49.4657 147.699C49.0873 147.699 48.7493 147.782 48.4514 147.947C48.1577 148.108 47.9242 148.333 47.7512 148.623C47.5821 148.913 47.4976 149.247 47.4976 149.625V154.871H44.9259ZM51.8819 154.871V145.599H54.3752V147.217H54.4718C54.6408 146.641 54.9245 146.206 55.323 145.913C55.7214 145.615 56.1802 145.466 56.6994 145.466C56.8282 145.466 56.967 145.474 57.116 145.49C57.2649 145.506 57.3957 145.528 57.5084 145.556V147.838C57.3876 147.802 57.2206 147.77 57.0073 147.742C56.794 147.714 56.5988 147.699 56.4217 147.699C56.0434 147.699 55.7053 147.782 55.4075 147.947C55.1137 148.108 54.8803 148.333 54.7072 148.623C54.5382 148.913 54.4537 149.247 54.4537 149.625V154.871H51.8819ZM62.596 155.052C61.6582 155.052 60.8473 154.853 60.1631 154.455C59.4829 154.052 58.9577 153.493 58.5875 152.777C58.2172 152.056 58.0321 151.221 58.0321 150.271C58.0321 149.313 58.2172 148.476 58.5875 147.76C58.9577 147.039 59.4829 146.48 60.1631 146.082C60.8473 145.679 61.6582 145.478 62.596 145.478C63.5337 145.478 64.3427 145.679 65.0228 146.082C65.707 146.48 66.2342 147.039 66.6045 147.76C66.9748 148.476 67.1599 149.313 67.1599 150.271C67.1599 151.221 66.9748 152.056 66.6045 152.777C66.2342 153.493 65.707 154.052 65.0228 154.455C64.3427 154.853 63.5337 155.052 62.596 155.052ZM62.6081 153.06C63.0347 153.06 63.3908 152.94 63.6766 152.698C63.9623 152.453 64.1777 152.118 64.3225 151.696C64.4715 151.273 64.5459 150.792 64.5459 150.253C64.5459 149.714 64.4715 149.233 64.3225 148.81C64.1777 148.388 63.9623 148.054 63.6766 147.808C63.3908 147.563 63.0347 147.44 62.6081 147.44C62.1774 147.44 61.8152 147.563 61.5214 147.808C61.2316 148.054 61.0123 148.388 60.8634 148.81C60.7185 149.233 60.6461 149.714 60.6461 150.253C60.6461 150.792 60.7185 151.273 60.8634 151.696C61.0123 152.118 61.2316 152.453 61.5214 152.698C61.8152 152.94 62.1774 153.06 62.6081 153.06ZM68.8321 154.871V145.599H71.3254V147.217H71.422C71.591 146.641 71.8747 146.206 72.2732 145.913C72.6716 145.615 73.1304 145.466 73.6496 145.466C73.7784 145.466 73.9172 145.474 74.0662 145.49C74.2151 145.506 74.3459 145.528 74.4586 145.556V147.838C74.3378 147.802 74.1708 147.77 73.9575 147.742C73.7442 147.714 73.549 147.699 73.3719 147.699C72.9936 147.699 72.6555 147.782 72.3577 147.947C72.0639 148.108 71.8305 148.333 71.6574 148.623C71.4884 148.913 71.4039 149.247 71.4039 149.625V154.871H68.8321Z" fill="#5E4B39"/>
<path d="M39.5487 137.219C38.6955 137.219 37.9348 137.062 37.2667 136.748C36.6026 136.434 36.0754 136.001 35.685 135.45C35.2946 134.898 35.0914 134.267 35.0753 133.554H37.6108C37.639 134.033 37.8402 134.421 38.2145 134.719C38.5888 135.017 39.0335 135.166 39.5487 135.166C39.9592 135.166 40.3214 135.075 40.6353 134.894C40.9533 134.709 41.2008 134.454 41.3779 134.128C41.559 133.798 41.6495 133.419 41.6495 132.993C41.6495 132.558 41.557 132.176 41.3718 131.846C41.1907 131.516 40.9392 131.258 40.6172 131.073C40.2952 130.888 39.927 130.793 39.5125 130.789C39.1502 130.789 38.7981 130.864 38.456 131.013C38.1179 131.162 37.8543 131.365 37.6651 131.622L35.3409 131.206L35.9265 124.686H43.4848V126.823H38.0817L37.7617 129.92H37.8342C38.0515 129.614 38.3795 129.361 38.8182 129.159C39.2569 128.958 39.7479 128.857 40.2912 128.857C41.0358 128.857 41.6998 129.033 42.2834 129.383C42.867 129.733 43.3278 130.214 43.6659 130.825C44.0039 131.433 44.1709 132.133 44.1669 132.926C44.1709 133.759 43.9778 134.5 43.5874 135.148C43.201 135.792 42.6597 136.299 41.9634 136.669C41.2712 137.035 40.4663 137.219 39.5487 137.219ZM50.8377 137.321C49.7994 137.317 48.9059 137.062 48.1573 136.555C47.4128 136.047 46.8393 135.313 46.4368 134.351C46.0384 133.389 45.8412 132.232 45.8452 130.88C45.8452 129.532 46.0444 128.383 46.4428 127.433C46.8453 126.483 47.4188 125.76 48.1634 125.265C48.912 124.766 49.8034 124.517 50.8377 124.517C51.8721 124.517 52.7615 124.766 53.5061 125.265C54.2546 125.765 54.8302 126.489 55.2326 127.439C55.6351 128.385 55.8343 129.532 55.8303 130.88C55.8303 132.236 55.629 133.395 55.2266 134.357C54.8281 135.319 54.2567 136.053 53.5121 136.561C52.7675 137.068 51.8761 137.321 50.8377 137.321ZM50.8377 135.154C51.5461 135.154 52.1115 134.798 52.5341 134.085C52.9567 133.373 53.166 132.305 53.162 130.88C53.162 129.942 53.0654 129.161 52.8722 128.537C52.683 127.914 52.4134 127.445 52.0632 127.131C51.7171 126.817 51.3086 126.66 50.8377 126.66C50.1334 126.66 49.57 127.012 49.1474 127.716C48.7248 128.421 48.5115 129.475 48.5075 130.88C48.5075 131.83 48.6021 132.622 48.7912 133.258C48.9844 133.89 49.2561 134.365 49.6062 134.683C49.9563 134.997 50.3669 135.154 50.8377 135.154ZM62.5418 137.321C61.5035 137.317 60.61 137.062 59.8614 136.555C59.1169 136.047 58.5434 135.313 58.1409 134.351C57.7425 133.389 57.5453 132.232 57.5493 130.88C57.5493 129.532 57.7485 128.383 58.1469 127.433C58.5494 126.483 59.1229 125.76 59.8675 125.265C60.6161 124.766 61.5075 124.517 62.5418 124.517C63.5762 124.517 64.4656 124.766 65.2102 125.265C65.9587 125.765 66.5343 126.489 66.9367 127.439C67.3392 128.385 67.5384 129.532 67.5344 130.88C67.5344 132.236 67.3331 133.395 66.9307 134.357C66.5322 135.319 65.9608 136.053 65.2162 136.561C64.4716 137.068 63.5802 137.321 62.5418 137.321ZM62.5418 135.154C63.2502 135.154 63.8156 134.798 64.2382 134.085C64.6608 133.373 64.8701 132.305 64.8661 130.88C64.8661 129.942 64.7695 129.161 64.5763 128.537C64.3871 127.914 64.1175 127.445 63.7673 127.131C63.4212 126.817 63.0127 126.66 62.5418 126.66C61.8375 126.66 61.2741 127.012 60.8515 127.716C60.4289 128.421 60.2156 129.475 60.2116 130.88C60.2116 131.83 60.3062 132.622 60.4953 133.258C60.6885 133.89 60.9602 134.365 61.3103 134.683C61.6604 134.997 62.071 135.154 62.5418 135.154Z" fill="#5E4B39"/>
<path d="M134.374 100.153C134.912 99.2014 136.231 99.1417 136.867 99.9739L136.985 100.153L165.891 151.211C166.458 152.211 165.735 153.45 164.586 153.45H106.773C105.624 153.45 104.902 152.211 105.468 151.211L134.374 100.153Z" stroke="#5E4B39" stroke-width="3"/>
<rect x="134.223" y="114.109" width="2.91262" height="25.2475" rx="1.45631" fill="#5E4B39"/>
<rect x="134.223" y="142.327" width="2.91262" height="2.9703" rx="1.45631" fill="#5E4B39"/>
</svg>
