<svg width="143" height="60" viewBox="0 0 143 60" fill="none" xmlns="http://www.w3.org/2000/svg">
<path d="M39.8867 25.7578H38.7734V21.9258H39.8867V25.7578ZM48.6641 22.4297H29.9727V21.457H48.6641V22.4297ZM46.3086 31.7578H45.1953V26.2266H32.0586V25.2539H46.3086V31.7578ZM33.6523 14.3789H45.0664V11.6836H46.1797V19.1719H32.5391V11.6836H33.6523V14.3789ZM45.0664 18.2461V15.3047H33.6523V18.2461H45.0664Z" fill="black"/>
<path d="M54.5312 19.8125H48.4961V18.8281H54.5312V19.8125ZM65.6641 33.5352H46.9727V32.5391H65.6641V33.5352ZM55.2109 19.3438C55.1953 20.2969 55.168 21.1914 55.1289 22.0273C55.0898 22.8633 54.9727 23.9883 54.7773 25.4023C54.582 26.8086 54.2852 28.3633 53.8867 30.0664L52.7266 29.8789C53.1484 28.2773 53.4609 26.793 53.6641 25.4258C53.8672 24.0508 53.9922 22.9258 54.0391 22.0508C54.0859 21.1758 54.1133 20.2734 54.1211 19.3438V18.8281H55.2109V19.3438ZM62.6055 19.8125H56.8398V18.8281H62.6055V19.8125ZM63.3555 20.4336C63.3555 21.4883 63.3398 22.4297 63.3086 23.2578C63.2852 24.0859 63.207 25.082 63.0742 26.2461C62.9414 27.4102 62.7305 28.6797 62.4414 30.0547L61.2695 29.8906C61.5742 28.5859 61.7969 27.3633 61.9375 26.2227C62.0859 25.082 62.1758 24.1016 62.207 23.2812C62.2461 22.4609 62.2656 21.5117 62.2656 20.4336V18.8281H63.3555V20.4336Z" fill="black"/>
<path d="M85.8867 24.7578H84.7734V20.9258H85.8867V24.7578ZM94.6641 21.4297H75.9727V20.457H94.6641V21.4297ZM92.3086 30.7578H91.1953V25.2266H78.0586V24.2539H92.3086V30.7578ZM79.6523 13.3789H91.0664V10.6836H92.1797V18.1719H78.5391V10.6836H79.6523V13.3789ZM91.0664 17.2461V14.3047H79.6523V17.2461H91.0664Z" fill="black"/>
<path d="M100.531 18.8125H94.4961V17.8281H100.531V18.8125ZM111.664 32.5352H92.9727V31.5391H111.664V32.5352ZM101.211 18.3438C101.195 19.2969 101.168 20.1914 101.129 21.0273C101.09 21.8633 100.973 22.9883 100.777 24.4023C100.582 25.8086 100.285 27.3633 99.8867 29.0664L98.7266 28.8789C99.1484 27.2773 99.4609 25.793 99.6641 24.4258C99.8672 23.0508 99.9922 21.9258 100.039 21.0508C100.086 20.1758 100.113 19.2734 100.121 18.3438V17.8281H101.211V18.3438ZM108.605 18.8125H102.84V17.8281H108.605V18.8125ZM109.355 19.4336C109.355 20.4883 109.34 21.4297 109.309 22.2578C109.285 23.0859 109.207 24.082 109.074 25.2461C108.941 26.4102 108.73 27.6797 108.441 29.0547L107.27 28.8906C107.574 27.5859 107.797 26.3633 107.938 25.2227C108.086 24.082 108.176 23.1016 108.207 22.2812C108.246 21.4609 108.266 20.5117 108.266 19.4336V17.8281H109.355V19.4336Z" fill="black"/>
<path d="M7 44H62.3804L57.724 53C68.7164 55.1081 74.7325 54.9672 85.2748 53L81.3944 44H136" stroke="black"/>
<path d="M11 40.5081C54.2225 31.3168 68.3427 42.3397 70 49" stroke="black"/>
<path d="M132 40.5081C88.7775 31.3168 74.6573 42.3397 73 49" stroke="black"/>
</svg>
